# xmcd
#
# Track frame offsets: 
#        150
#        18058
#        36963
#        54955
#        73776
#        90565
#        111746
#        126852
#        148740
#        167285
#        181854
#        200867
#
# Disc length: 2934 seconds
#
# Revision: 0
# Processed by: cddbd v1.5.2PL0 Copyright (c) Steve Scherf et al.
# Submitted via: ExactAudioCopyFreeDBPlugin 1.0
#
DISCID=a70b740c
DTITLE=Jay Boy Adams - The Shoe Box
DYEAR=2006
DGENRE=Country
TTITLE0=The Shoe Box
TTITLE1=Life In A Small Town
TTITLE2=Color You Gone
TTITLE3=John The Revelator
TTITLE4=Mississippi To Abilene
TTITLE5=Showman's Life
TTITLE6=Moro Bay
TTITLE7=Bottle And The Bible
TTITLE8=Life And Fate
TTITLE9=For Home
TTITLE10=Waitin' On Five O'Clock
TTITLE11=Water For My Horses
EXTD=
EXTT0=
EXTT1=
EXTT2=
EXTT3=
EXTT4=
EXTT5=
EXTT6=
EXTT7=
EXTT8=
EXTT9=
EXTT10=
EXTT11=
PLAYORDER=
